<?xml version="1.0" encoding="utf-8"?>
<!-- Generator: Adobe Illustrator 25.2.1, SVG Export Plug-In . SVG Version: 6.00 Build 0)  -->
<svg version="1.1" id="Layer_1" xmlns="http://www.w3.org/2000/svg" xmlns:xlink="http://www.w3.org/1999/xlink" x="0px" y="0px"
	 viewBox="0 0 158.3 50" style="enable-background:new 0 0 158.3 50;" xml:space="preserve">
<style type="text/css">
	.st0{fill:#002D72;}
</style>
<g>
	<path class="st0" d="M31,11.9c-3.4-0.7-6.9-1.2-10.5-1.3v8.3c0,0,1.3-2.1,3.8-1.9c1.6,0.1,2.3,1,2.3,2.8v9.2h-2.4v-9.1v-0.1
		c0-0.1,0-0.5-0.3-0.7c-0.2-0.2-0.5-0.3-1-0.3H23c-1,0-2,1.2-2.5,1.9l-0.1,0.1v8.1h-2.3V10.6c-4.2,0-8.3,0.5-12.3,1.3
		c-0.3,0.1-0.5,0.3-0.5,0.6v2.3c0,8.1,2.6,13.8,5.7,17.6c0.1-0.1,0.1-0.1,0.1-0.1c2.3-2,2.4-5.7,2.4-5.9V18h-1.5v-1H16v9.2v0.2
		c-0.1,4.3-3.1,7-3.6,7.5c2.1,2.3,4.4,3.7,5.8,4.5c0.3,0.1,0.5,0.1,0.6,0c3.8-2,12.7-8.7,12.7-23.7v-2.3C31.5,12.2,31.3,12,31,11.9z
		"/>
	<path class="st0" d="M39.6,16.1c0-2.1-0.2-2.3-1.3-2.3l-0.5-0.1c-0.1-0.1-0.1-0.4,0.1-0.5c1.1,0.1,1.7,0.1,2.5,0.1
		c0.7,0,1.4,0,2.1-0.1c0.1,0.1,0.1,0.4,0.1,0.5l-0.3,0.1c-1.1,0.1-1.1,0.4-1.1,2.3v6.8c0,1.4-0.1,2.7-0.5,3.6
		c-0.6,1.5-1.9,2.6-3.6,2.6c-0.2,0-0.8,0-0.8-0.4c0-0.3,0.3-0.8,0.6-0.8c0.2,0,0.5,0.1,0.7,0.1c0.3,0.1,0.5,0.1,0.8,0.1
		c0.4,0,0.6-0.2,0.7-0.5c0.5-0.8,0.5-3.6,0.5-4.6V16.1z"/>
	<path class="st0" d="M42.6,20.4c0-3.1,2.3-5.5,5.5-5.5c3.6,0,5.4,2.6,5.4,5.3c0,3.1-2.4,5.4-5.4,5.4C44.6,25.7,42.6,23.2,42.6,20.4
		z M51.9,20.7c0-2.6-1.2-5.3-4.1-5.3c-1.6,0-3.7,1.1-3.7,4.5c0,2.3,1.1,5.3,4.2,5.3C50.2,25.2,51.9,23.8,51.9,20.7z"/>
	<path class="st0" d="M57,20.4c-0.8,0-0.8,0-0.8,0.5v2.2c0,1.6,0.1,1.9,1,1.9l0.5,0.1c0.1,0.1,0.1,0.3,0,0.4c-0.8,0-1.4-0.1-1.9-0.1
		c-0.6,0-1.2,0-1.8,0.1c-0.1-0.1-0.1-0.3,0-0.4l0.3-0.1c0.8-0.1,0.9-0.3,0.9-1.9v-5.6c0-1.6-0.1-1.9-0.9-1.9h-0.4
		c-0.1-0.1-0.1-0.3,0-0.4c0.8,0,1.3,0.1,1.9,0.1c0.6,0,1.2,0,1.8-0.1c0.1,0.1,0.1,0.3,0,0.4h-0.3c-0.9,0.1-0.9,0.3-0.9,1.9v1.8
		c0,0.5,0,0.5,0.8,0.5h4.5c0.8,0,0.8,0,0.8-0.5v-1.8c0-1.6,0-1.9-1-1.9h-0.3c-0.1-0.1-0.1-0.3,0-0.4c0.7,0,1.2,0.1,1.9,0.1
		c0.6,0,1.2,0,1.8-0.1c0.1,0.1,0.1,0.3,0,0.4h-0.3c-0.9,0.1-0.9,0.3-0.9,1.9v5.6c0,1.6,0,1.8,0.9,1.9l0.4,0.1c0.1,0.1,0.1,0.3,0,0.4
		c-0.8,0-1.3-0.1-1.9-0.1c-0.6,0-1.2,0-1.9,0.1c-0.1-0.1-0.1-0.3,0-0.4l0.3-0.1c1-0.1,1-0.3,1-1.9v-2.2c0-0.5,0-0.5-0.8-0.5H57z"/>
	<path class="st0" d="M75.5,22.8c0,0.5,0,2.3,0.1,2.7c0,0.1-0.1,0.2-0.3,0.2c-0.2-0.3-0.6-0.8-2-2.3l-3.6-4.1
		c-0.4-0.5-1.5-1.7-1.8-2.1c-0.1,0.2-0.1,0.5-0.1,1v3.4c0,0.7,0,2.7,0.3,3.2c0.1,0.2,0.4,0.3,0.8,0.3l0.5,0.1c0.1,0.1,0.1,0.3,0,0.4
		c-0.7,0-1.2-0.1-1.8-0.1c-0.6,0-1.1,0-1.6,0.1c-0.1-0.1-0.1-0.3,0-0.4l0.4-0.1c0.4-0.1,0.6-0.1,0.7-0.3c0.2-0.6,0.2-2.5,0.2-3.2
		v-4.5c0-0.5,0-0.8-0.3-1.1c-0.2-0.2-0.6-0.3-1-0.4h-0.3c-0.1-0.1-0.1-0.3,0-0.4c0.6,0.1,1.5,0.1,1.8,0.1c0.3,0,0.5,0,0.7-0.1
		c0.3,0.8,2.1,2.8,2.7,3.4l1.5,1.7c1.1,1.2,1.8,2.1,2.6,2.8c0.1-0.1,0.1-0.3,0.1-0.6v-3.5c0-0.7,0-2.7-0.3-3.2
		c-0.1-0.1-0.3-0.3-1-0.3h-0.3c-0.1-0.1-0.1-0.3,0-0.4c0.7,0,1.2,0.1,1.8,0.1c0.6,0,1.1,0,1.6-0.1c0.1,0.1,0.1,0.3,0,0.4h-0.2
		c-0.5,0.1-0.8,0.2-0.8,0.3c-0.3,0.6-0.3,2.5-0.3,3.2v3.7H75.5z"/>
	<path class="st0" d="M79.6,25.7c-1.3,0-2.1-0.4-2.4-0.6c-0.2-0.3-0.4-1.4-0.4-2.2c0.1-0.1,0.3-0.1,0.4-0.1c0.3,0.8,0.8,2.3,2.7,2.3
		c1.3,0,1.9-0.8,1.9-1.8c0-0.7-0.1-1.4-1.3-2.2l-1.5-1c-0.8-0.5-1.7-1.4-1.7-2.6c0-1.5,1.2-2.6,3.2-2.6c0.5,0,1,0.1,1.4,0.2
		c0.2,0.1,0.4,0.1,0.5,0.1c0.1,0.4,0.3,1.2,0.3,1.9c-0.1,0.1-0.3,0.1-0.4,0.1c-0.2-0.8-0.6-1.7-2.1-1.7c-1.6,0-1.9,1-1.9,1.7
		c0,0.9,0.8,1.6,1.3,1.9l1.2,0.8c1,0.6,1.9,1.5,1.9,3C83,24.6,81.7,25.7,79.6,25.7z"/>
	<path class="st0" d="M92.2,19.5c-0.9,0-0.9,0.1-0.9,0.6v2.6c0,1.9,0.1,2.2,1.1,2.3l0.5,0.1c0.1,0.1,0.1,0.4-0.1,0.5
		c-1-0.1-1.6-0.1-2.3-0.1c-0.8,0-1.4,0.1-2.1,0.1c-0.1-0.1-0.1-0.3-0.1-0.5l0.3-0.1c1-0.2,1.1-0.4,1.1-2.3v-6.6
		c0-1.9-0.1-2.3-1.1-2.3l-0.5-0.1c-0.1-0.1-0.1-0.4,0.1-0.5c0.9,0,1.6,0.1,2.3,0.1c0.7,0,1.4,0,2.1-0.1c0.1,0.1,0.1,0.4,0.1,0.5
		l-0.3,0.1c-1,0.1-1.1,0.4-1.1,2.3v2.1c0,0.6,0.1,0.6,0.9,0.6h5.3c0.9,0,0.9,0,0.9-0.6v-2.1c0-1.9-0.1-2.2-1.1-2.3L97,13.7
		c-0.1-0.1-0.1-0.4,0.1-0.5c0.8,0.1,1.5,0.1,2.2,0.1c0.7,0,1.4,0,2.2-0.1c0.1,0.1,0.1,0.4,0.1,0.5l-0.4,0.1c-1,0.1-1.1,0.4-1.1,2.3
		v6.6c0,1.9,0.1,2.2,1.1,2.3l0.5,0.1c0.1,0.1,0.1,0.4-0.1,0.5c-0.9-0.1-1.5-0.1-2.2-0.1c-0.8,0-1.4,0-2.2,0.1
		C97,25.5,97,25.2,97,25.1l0.3-0.1c1.1-0.2,1.1-0.4,1.1-2.3v-2.6c0-0.6-0.1-0.6-0.9-0.6H92.2z"/>
	<path class="st0" d="M101.3,20.4c0-3.1,2.3-5.5,5.5-5.5c3.6,0,5.4,2.6,5.4,5.3c0,3.1-2.4,5.4-5.4,5.4
		C103.4,25.7,101.3,23.2,101.3,20.4z M110.8,20.7c0-2.6-1.2-5.3-4.1-5.3c-1.6,0-3.7,1.1-3.7,4.5c0,2.3,1.1,5.3,4.2,5.3
		C109,25.2,110.8,23.8,110.8,20.7z"/>
	<path class="st0" d="M115.1,23.1c0,1.6,0,1.8,1,1.9l0.4,0.1c0.1,0.1,0.1,0.3,0,0.4c-0.9,0-1.4-0.1-2-0.1c-0.6,0-1.2,0-1.9,0.1
		c-0.1-0.1-0.1-0.3,0-0.4l0.3-0.1c0.9-0.1,0.9-0.3,0.9-1.9v-5.7c0-1.3,0-1.6-0.7-1.7l-0.6-0.1c-0.1-0.1-0.1-0.3,0-0.4
		c0.8-0.1,1.8-0.1,3.1-0.1c1.3,0,2.3,0.2,3,0.6c0.7,0.5,1.2,1.2,1.2,2.3c0,1.4-0.9,2.1-1.6,2.5c-0.7,0.3-1.5,0.5-2.1,0.5
		c-0.1-0.1-0.1-0.3,0-0.3c1.7-0.3,2.3-1.2,2.3-2.6c0-1.5-0.9-2.5-2.5-2.5c-0.8,0-0.8,0.1-0.8,0.6V23.1z"/>
	<path class="st0" d="M121.6,17.5c0-1.6,0-1.9-0.9-1.9h-0.4c-0.1-0.1-0.1-0.3,0-0.4c0.8,0,1.2,0.1,1.9,0.1c0.6,0,1.2,0,1.8-0.1
		c0.1,0.1,0.1,0.3,0,0.4h-0.3c-0.9,0.1-0.9,0.3-0.9,1.9v1.8c0,0.3,0,0.6,0.2,0.6c0.1,0,0.3-0.1,0.5-0.2c0.2-0.2,0.6-0.6,0.8-0.8
		l1.7-1.7c0.3-0.3,1-1.1,1.2-1.3c0.1-0.1,0.1-0.2,0.1-0.3s-0.1-0.1-0.3-0.1l-0.4-0.1c-0.1-0.1-0.1-0.3,0-0.4c0.5,0,1.2,0.1,1.7,0.1
		c0.5,0,1.1,0,1.6-0.1c0.1,0.1,0.1,0.3,0,0.4c-0.4,0-1,0.2-1.4,0.5c-0.5,0.3-1.3,1-2.2,1.8l-1.4,1.3c-0.2,0.2-0.4,0.4-0.4,0.5
		c0,0.1,0.1,0.3,0.3,0.5c1.5,1.7,2.7,3.1,3.9,4.3c0.4,0.4,0.6,0.6,1.2,0.6l0.3,0.1c0.1,0.1,0.1,0.3,0,0.4c-0.4,0-0.8-0.1-1.6-0.1
		c-0.6,0-1.2,0-1.9,0.1c-0.1,0-0.1-0.3-0.1-0.4l0.4-0.1c0.2,0,0.4-0.1,0.4-0.1c0-0.1-0.1-0.2-0.2-0.4c-0.3-0.4-0.7-0.8-1.3-1.5
		l-1.2-1.4c-0.9-1-1.2-1.3-1.5-1.3c-0.3,0-0.3,0.2-0.3,0.8v2c0,1.6,0,1.9,0.9,1.9l0.4,0.1c0.1,0.1,0.1,0.3,0,0.4
		c-0.8,0-1.3-0.1-1.9-0.1c-0.6,0-1.2,0-1.8,0.1c-0.1-0.1-0.1-0.3,0-0.4l0.3-0.1c0.8-0.1,0.8-0.3,0.8-1.9v-5.5H121.6z"/>
	<path class="st0" d="M132.3,17.6c0-1.6,0-1.9-1-2H131c-0.1-0.1-0.1-0.3,0-0.4c0.8,0,1.3,0.1,1.9,0.1s1.2,0,1.9-0.1
		c0.1,0.1,0.1,0.3,0,0.4h-0.4c-0.9,0.1-1,0.3-1,2v5.5c0,1.6,0,1.9,1,1.9l0.4,0.1c0.1,0.1,0.1,0.3,0,0.4c-0.8,0-1.3-0.1-1.9-0.1
		s-1.1,0-1.9,0.1c-0.1-0.1-0.1-0.3,0-0.4l0.3-0.1c0.9-0.1,1-0.3,1-1.9V17.6z"/>
	<path class="st0" d="M145.8,22.8c0,0.5,0,2.3,0.1,2.7c0,0.1-0.1,0.2-0.3,0.2c-0.2-0.3-0.6-0.8-2-2.3l-3.6-4.1
		c-0.4-0.5-1.5-1.7-1.8-2.1c-0.1,0.2-0.1,0.5-0.1,1v3.4c0,0.7,0,2.7,0.3,3.2c0.1,0.2,0.4,0.3,0.8,0.3l0.5,0.1c0.1,0.1,0.1,0.3,0,0.4
		c-0.7,0-1.2-0.1-1.8-0.1c-0.6,0-1.1,0-1.6,0.1c-0.1-0.1-0.1-0.3,0-0.4l0.4-0.1c0.4-0.1,0.6-0.1,0.7-0.3c0.2-0.6,0.2-2.5,0.2-3.2
		v-4.5c0-0.5,0-0.8-0.3-1.1c-0.2-0.2-0.6-0.3-1-0.4h-0.3c-0.1-0.1-0.1-0.3,0-0.4c0.6,0.1,1.5,0.1,1.8,0.1s0.5,0,0.7-0.1
		c0.3,0.8,2.1,2.8,2.7,3.4l1.5,1.7c1.1,1.2,1.8,2.1,2.6,2.8c0.1-0.1,0.1-0.3,0.1-0.6v-3.5c0-0.7,0-2.7-0.3-3.2
		c-0.1-0.1-0.3-0.3-1-0.3h-0.3c-0.1-0.1-0.1-0.3,0-0.4c0.7,0,1.2,0.1,1.8,0.1c0.6,0,1.1,0,1.6-0.1c0.1,0.1,0.1,0.3,0,0.4h-0.2
		c-0.5,0.1-0.8,0.2-0.8,0.3c-0.3,0.6-0.3,2.5-0.3,3.2v3.7H145.8z"/>
	<path class="st0" d="M149.9,25.7c-1.3,0-2.1-0.4-2.4-0.6c-0.2-0.3-0.4-1.4-0.4-2.2c0.1-0.1,0.3-0.1,0.4-0.1
		c0.3,0.8,0.8,2.3,2.7,2.3c1.3,0,1.9-0.8,1.9-1.8c0-0.7-0.1-1.4-1.3-2.2l-1.5-1c-0.8-0.5-1.7-1.4-1.7-2.6c0-1.5,1.2-2.6,3.2-2.6
		c0.5,0,1,0.1,1.4,0.2c0.2,0.1,0.4,0.1,0.5,0.1c0.1,0.4,0.3,1.2,0.3,1.9c-0.1,0.1-0.3,0.1-0.4,0.1c-0.2-0.8-0.6-1.7-2.1-1.7
		c-1.6,0-1.9,1-1.9,1.7c0,0.9,0.8,1.6,1.3,1.9l1.2,0.8c1,0.6,1.9,1.5,1.9,3C153.2,24.6,151.9,25.7,149.9,25.7z"/>
	<path class="st0" d="M60.9,34.4c0-0.5,0-1.4-0.1-1.7c-0.1-0.1-0.2-0.1-0.4-0.2h-0.2c-0.1-0.1,0-0.1,0-0.2c0.3,0,0.6,0,0.9,0
		c0.3,0,0.6,0,0.8,0c0.1,0.1,0.1,0.1,0,0.2h-0.2c-0.2,0-0.3,0.1-0.4,0.2c-0.1,0.3-0.1,1.2-0.1,1.6v1c0,0.7-0.1,1.4-0.6,1.9
		c-0.3,0.4-1,0.6-1.6,0.6c-0.6,0-1.1-0.1-1.5-0.5c-0.5-0.3-0.6-1-0.6-1.9v-1.9c0-0.8,0-1-0.5-1h-0.2c-0.1,0-0.1-0.2,0-0.2
		c0.4,0,0.6,0,1,0c0.3,0,0.6,0,1,0c0.1,0,0.1,0.1,0,0.2h-0.2c-0.5,0.1-0.5,0.2-0.5,1v1.7c0,1.3,0.4,2.1,1.6,2.1
		c1.2,0,1.6-0.9,1.6-2.1L60.9,34.4L60.9,34.4z"/>
	<path class="st0" d="M67.9,36.3c0,0.3,0,1.2,0,1.4c0,0.1-0.1,0.1-0.1,0.1c-0.1-0.1-0.3-0.4-1-1.2l-1.9-2.1
		c-0.2-0.3-0.8-0.9-0.9-1.1c-0.1,0.1-0.1,0.3-0.1,0.5v1.7c0,0.4,0,1.4,0.1,1.7c0.1,0.1,0.2,0.1,0.4,0.1h0.3c0.1,0.1,0.1,0.1,0,0.2
		c-0.4,0-0.6,0-1,0s-0.6,0-0.8,0c-0.1-0.1-0.1-0.1,0-0.2H63c0.2,0,0.3-0.1,0.3-0.1c0.1-0.3,0.1-1.3,0.1-1.7v-2.3
		c0-0.2,0-0.4-0.2-0.6c-0.1-0.1-0.3-0.2-0.5-0.2h-0.1c-0.1-0.1-0.1-0.2,0-0.2c0.3,0,0.8,0,0.9,0c0.1,0,0.3,0,0.4,0
		c0.1,0.4,1.1,1.5,1.4,1.7l0.8,0.9c0.6,0.6,1,1.1,1.3,1.4c0.1-0.1,0.1-0.2,0.1-0.3v-1.7c0-0.4,0-1.4-0.1-1.7
		c-0.1-0.1-0.2-0.1-0.5-0.1h-0.1c-0.1-0.1-0.1-0.2,0-0.2c0.4,0,0.6,0,1,0c0.3,0,0.6,0,0.8,0c0.1,0.1,0.1,0.1,0,0.2h-0.1
		c-0.3,0.1-0.4,0.1-0.5,0.2c-0.1,0.3-0.1,1.3-0.1,1.7v1.9H67.9z"/>
	<path class="st0" d="M70.3,33.6c0-0.8,0-1-0.5-1h-0.2c-0.1,0,0-0.2,0-0.2c0.4,0,0.6,0,1,0c0.3,0,0.6,0,1,0c0.1,0,0.1,0.2,0,0.2
		h-0.2c-0.5,0.1-0.5,0.2-0.5,1v2.8c0,0.8,0,1,0.5,1h0.2c0.1,0,0,0.2,0,0.2c-0.4,0-0.6,0-1,0c-0.3,0-0.6,0-1,0c-0.1,0-0.1-0.1,0-0.2
		h0.2c0.5-0.1,0.5-0.2,0.5-1V33.6z"/>
	<path class="st0" d="M73.1,33.2c-0.2-0.5-0.3-0.6-0.6-0.6h-0.1c-0.1-0.1-0.1-0.1,0-0.2c0.3,0,0.5,0,0.8,0c0.3,0,0.6,0,1,0
		c0.1,0,0.1,0.1,0,0.2h-0.1c-0.3,0.1-0.4,0.1-0.4,0.1c0,0.1,0.1,0.5,0.4,1.1c0.4,0.9,0.7,1.9,1.2,2.8c0.3-0.5,0.6-1.4,0.8-1.8
		c0.3-0.5,0.6-1.4,0.8-1.8c0.1-0.2,0.1-0.3,0.1-0.3c0-0.1-0.1-0.1-0.4-0.1h-0.1c-0.1-0.1-0.1-0.2,0-0.2c0.2,0,0.5,0,0.8,0
		c0.3,0,0.5,0,0.8,0c0.1,0,0.1,0.1,0,0.2h-0.3c-0.2,0-0.3,0.1-0.4,0.3c-0.2,0.4-0.5,1-0.9,1.9l-0.5,1c-0.3,0.7-0.7,1.7-0.8,2.1H75
		c-0.1,0-0.1,0-0.1,0c-0.1-0.3-0.3-0.7-0.4-1L73.1,33.2z"/>
	<path class="st0" d="M79.3,33.6c0-0.8,0-1-0.5-1h-0.1c-0.1,0,0-0.2,0-0.2c0.3,0,0.6,0,1,0h1.5c0.5,0,1,0,1.1,0
		c0.1,0.1,0.1,0.7,0.1,1c0,0.1-0.1,0.1-0.2,0c-0.1-0.4-0.2-0.6-0.6-0.8c-0.2-0.1-0.5-0.1-0.8-0.1h-0.6c-0.3,0-0.3,0-0.3,0.3v1.6
		c0,0.2,0,0.2,0.3,0.2h0.5c0.3,0,0.6,0,0.7-0.1c0.1,0,0.1-0.1,0.2-0.3l0.1-0.3c0.1-0.1,0.2-0.1,0.2,0c0,0.2,0,0.5,0,0.8
		c0,0.3,0,0.6,0,0.8c0,0.1-0.2,0.1-0.2,0l-0.1-0.3c0-0.1-0.1-0.3-0.3-0.3c-0.1,0-0.3-0.1-0.6-0.1h-0.5c-0.3,0-0.3,0-0.3,0.2v1.1
		c0,0.5,0,0.7,0.1,0.8c0.1,0.1,0.3,0.2,1,0.2c0.6,0,0.8,0,1-0.1c0.1-0.1,0.4-0.4,0.6-0.8c0.1-0.1,0.2,0,0.2,0.1
		c-0.1,0.3-0.3,0.9-0.4,1.1c-0.7,0-1.4,0-2.1,0h-0.7c-0.3,0-0.6,0-1.1,0c-0.1,0-0.1-0.1,0-0.2h0.3c0.5-0.1,0.5-0.1,0.5-1V33.6z"/>
	<path class="st0" d="M84.4,33.6c0-0.8,0-0.9-0.3-1h-0.3c-0.1-0.1-0.1-0.2,0-0.2c0.5-0.1,1-0.1,1.8-0.1c0.5,0,1,0.1,1.4,0.3
		c0.4,0.2,0.6,0.6,0.6,1.1c0,0.8-0.6,1.2-1,1.4c-0.1,0.1,0,0.1,0.1,0.2c0.6,1,1,1.7,1.6,2.1c0.1,0.1,0.3,0.2,0.6,0.2
		c0.1,0,0.1,0.1,0,0.1c-0.1,0-0.2,0.1-0.3,0.1c-0.7,0-1.1-0.2-1.7-1c-0.2-0.3-0.5-0.8-0.8-1.2c-0.1-0.2-0.3-0.3-0.6-0.3
		c-0.4,0-0.4,0-0.4,0.2v1c0,0.8,0,1,0.5,1h0.2c0.1,0.1,0,0.2,0,0.2c-0.4,0-0.6,0-1,0c-0.3,0-0.6,0-1,0c-0.1,0-0.1-0.1,0-0.2h0.2
		c0.5-0.1,0.5-0.1,0.5-1V33.6z M85,34.8c0,0.1,0,0.3,0,0.3s0.1,0.1,0.6,0.1c0.3,0,0.6,0,0.8-0.2c0.2-0.2,0.4-0.5,0.4-1
		c0-0.6-0.4-1.2-1.3-1.2c-0.5,0-0.5,0-0.5,0.3V34.8z"/>
	<path class="st0" d="M90.7,37.8c-0.6,0-1.1-0.2-1.2-0.3c-0.1-0.2-0.2-0.8-0.2-1.1c0.1-0.1,0.1-0.1,0.2,0c0.1,0.4,0.5,1.2,1.4,1.2
		c0.6,0,1-0.5,1-0.9c0-0.3-0.1-0.8-0.6-1.1L90.5,35c-0.4-0.3-0.8-0.7-0.8-1.4c0-0.8,0.6-1.4,1.6-1.4c0.3,0,0.5,0.1,0.8,0.1
		c0.1,0,0.2,0.1,0.3,0.1c0.1,0.2,0.1,0.6,0.1,1c0,0.1-0.1,0.1-0.2,0c-0.1-0.4-0.3-0.9-1.1-0.9s-1,0.5-1,0.9c0,0.5,0.4,0.8,0.7,1
		l0.6,0.4c0.5,0.3,1,0.8,1,1.6C92.5,37.2,91.9,37.8,90.7,37.8z"/>
	<path class="st0" d="M94.3,33.6c0-0.8,0-1-0.5-1h-0.2c-0.1,0,0-0.2,0-0.2c0.4,0,0.6,0,1,0c0.3,0,0.6,0,1,0c0.1,0,0.1,0.2,0,0.2
		h-0.2c-0.5,0.1-0.5,0.2-0.5,1v2.8c0,0.8,0,1,0.5,1h0.2c0.1,0,0,0.2,0,0.2c-0.4,0-0.6,0-1,0s-0.6,0-1,0c-0.1,0-0.1-0.1,0-0.2h0.2
		c0.5-0.1,0.5-0.2,0.5-1V33.6z"/>
	<path class="st0" d="M99.4,36.4c0,0.8,0,1,0.5,1h0.3c0.1,0,0,0.2,0,0.2c-0.5,0-0.7,0-1,0s-0.6,0-1.1,0c-0.1,0-0.1-0.1,0-0.2h0.3
		c0.5-0.1,0.5-0.1,0.5-1v-3.6c0-0.3,0-0.3-0.3-0.3h-0.4c-0.3,0-0.8,0-1,0.2c-0.2,0.2-0.3,0.3-0.4,0.6c-0.1,0.1-0.2,0-0.2-0.1
		c0.1-0.4,0.3-0.9,0.3-1.2H97c0.1,0.3,0.3,0.3,0.7,0.3h3.2c0.5,0,0.5,0,0.6-0.2c0.1,0,0.1,0,0.1,0c-0.1,0.3-0.1,1-0.1,1.2
		c-0.1,0.1-0.2,0.1-0.2,0c0-0.2-0.1-0.5-0.2-0.6c-0.2-0.1-0.5-0.2-0.9-0.2h-0.6c-0.3,0-0.3,0-0.3,0.3L99.4,36.4L99.4,36.4z"/>
	<path class="st0" d="M105,36.4c0,0.8,0.1,1,0.5,1h0.3c0.1,0.1,0,0.2,0,0.2c-0.5,0-0.8,0-1.1,0s-0.6,0-1,0c-0.1,0-0.1-0.1,0-0.2h0.3
		c0.5-0.1,0.5-0.1,0.5-1v-0.4c0-0.5,0-0.5-0.3-1l-1-1.9c-0.3-0.5-0.4-0.6-0.6-0.6l-0.2-0.1c-0.1-0.1-0.1-0.2,0-0.2
		c0.3,0,0.5,0,0.9,0c0.4,0,0.6,0,0.8,0c0.1,0,0.1,0.1,0,0.2h-0.1c-0.3,0.1-0.3,0.1-0.3,0.1c0,0.1,0.2,0.5,0.3,0.6
		c0.3,0.6,0.6,1.2,0.9,1.8c0.3-0.5,0.5-0.9,0.8-1.4c0.2-0.4,0.5-1,0.5-1s-0.1-0.1-0.3-0.1h-0.1c-0.1-0.1-0.1-0.2,0-0.2
		c0.3,0,0.5,0,0.8,0c0.3,0,0.5,0,0.8,0c0.1,0.1,0.1,0.1,0,0.2l-0.2,0.1c-0.4,0.1-0.6,0.6-1,1.3l-0.5,0.9c-0.3,0.6-0.4,0.7-0.4,1.3
		V36.4z"/>
	<path class="st0" d="M111.4,36.4c0,0.8,0,1,0.5,1h0.2c0.1,0.1,0,0.2,0,0.2c-0.5,0-0.7,0-1,0c-0.3,0-0.6,0-1,0c-0.1,0-0.1-0.1,0-0.2
		h0.2c0.5-0.1,0.5-0.1,0.5-1v-3c0-0.7,0-0.8-0.4-0.8h-0.3c-0.1-0.1-0.1-0.2,0-0.2c0.5-0.1,0.9-0.1,1.6-0.1c0.6,0,1.2,0.1,1.6,0.3
		c0.4,0.3,0.6,0.6,0.6,1.2c0,0.7-0.5,1.1-0.8,1.3c-0.3,0.2-0.8,0.3-1.1,0.3c-0.1,0-0.1-0.1,0-0.1c0.8-0.1,1.2-0.6,1.2-1.4
		c0-0.8-0.5-1.3-1.3-1.3c-0.5,0-0.5,0-0.5,0.3L111.4,36.4L111.4,36.4z"/>
	<path class="st0" d="M115.6,33.6c0-0.8,0-0.9-0.3-1H115c-0.1-0.1-0.1-0.2,0-0.2c0.5-0.1,1-0.1,1.8-0.1c0.5,0,1,0.1,1.4,0.3
		c0.4,0.2,0.6,0.6,0.6,1.1c0,0.8-0.6,1.2-1,1.4c-0.1,0.1,0,0.1,0.1,0.2c0.6,1,1.1,1.7,1.6,2.1c0.1,0.1,0.3,0.2,0.6,0.2
		c0.1,0,0.1,0.1,0,0.1c-0.1,0-0.2,0.1-0.3,0.1c-0.7,0-1.1-0.2-1.7-1c-0.2-0.3-0.5-0.8-0.8-1.2c-0.1-0.2-0.3-0.3-0.6-0.3
		c-0.4,0-0.4,0-0.4,0.2v1c0,0.8,0,1,0.5,1h0.2c0.1,0.1,0,0.2,0,0.2c-0.4,0-0.6,0-1,0s-0.6,0-1,0c-0.1,0-0.1-0.1,0-0.2h0.2
		c0.5-0.1,0.5-0.1,0.5-1V33.6z M116.3,34.8c0,0.1,0,0.3,0,0.3s0.1,0.1,0.6,0.1c0.3,0,0.6,0,0.8-0.2c0.2-0.2,0.4-0.5,0.4-1
		c0-0.6-0.4-1.2-1.3-1.2c-0.5,0-0.5,0-0.5,0.3V34.8z"/>
	<path class="st0" d="M121.2,33.6c0-0.8,0-1-0.5-1h-0.1c-0.1,0,0-0.2,0-0.2c0.3,0,0.6,0,1,0h1.5c0.5,0,1,0,1.1,0
		c0.1,0.1,0.1,0.7,0.1,1c0,0.1-0.1,0.1-0.2,0c-0.1-0.4-0.2-0.6-0.6-0.8c-0.2-0.1-0.5-0.1-0.8-0.1h-0.6c-0.3,0-0.3,0-0.3,0.3v1.6
		c0,0.2,0,0.2,0.3,0.2h0.5c0.3,0,0.6,0,0.7-0.1c0.1,0,0.1-0.1,0.2-0.3l0.1-0.3c0.1-0.1,0.2-0.1,0.2,0c0,0.2,0,0.5,0,0.8
		c0,0.3,0,0.6,0,0.8c0,0.1-0.2,0.1-0.2,0l-0.1-0.3c0-0.1-0.1-0.3-0.3-0.3c-0.1,0-0.3-0.1-0.6-0.1h-0.5c-0.3,0-0.3,0-0.3,0.2v1.1
		c0,0.5,0,0.7,0.1,0.8c0.1,0.1,0.3,0.2,1,0.2c0.6,0,0.8,0,1-0.1c0.1-0.1,0.4-0.4,0.6-0.8c0.1-0.1,0.2,0,0.2,0.1
		c-0.1,0.3-0.3,0.9-0.4,1.1c-0.7,0-1.4,0-2.1,0h-0.7c-0.3,0-0.6,0-1.1,0c-0.1,0-0.1-0.1,0-0.2h0.3c0.5-0.1,0.5-0.1,0.5-1V33.6z"/>
	<path class="st0" d="M127.1,37.8c-0.6,0-1.1-0.2-1.2-0.3c-0.1-0.2-0.2-0.8-0.2-1.1c0.1-0.1,0.1-0.1,0.2,0c0.1,0.4,0.5,1.2,1.4,1.2
		c0.6,0,1-0.5,1-0.9c0-0.3-0.1-0.8-0.6-1.1l-0.8-0.5c-0.4-0.3-0.8-0.7-0.8-1.4c0-0.8,0.6-1.4,1.6-1.4c0.3,0,0.5,0.1,0.8,0.1
		c0.1,0,0.2,0.1,0.3,0.1c0.1,0.2,0.1,0.6,0.1,1c0,0.1-0.1,0.1-0.2,0c-0.1-0.4-0.3-0.9-1.1-0.9c-0.8,0-1,0.5-1,0.9
		c0,0.5,0.4,0.8,0.7,1l0.6,0.4c0.5,0.3,1,0.8,1,1.6C128.8,37.2,128.2,37.8,127.1,37.8z"/>
	<path class="st0" d="M131.5,37.8c-0.6,0-1.1-0.2-1.2-0.3c-0.1-0.2-0.2-0.8-0.2-1.1c0.1-0.1,0.1-0.1,0.2,0c0.1,0.4,0.5,1.2,1.4,1.2
		c0.6,0,1-0.5,1-0.9c0-0.3-0.1-0.8-0.6-1.1l-0.8-0.5c-0.4-0.3-0.8-0.7-0.8-1.4c0-0.8,0.6-1.4,1.6-1.4c0.3,0,0.5,0.1,0.8,0.1
		c0.1,0,0.2,0.1,0.3,0.1c0.1,0.2,0.1,0.6,0.1,1c0,0.1-0.1,0.1-0.2,0c-0.1-0.4-0.3-0.9-1.1-0.9c-0.8,0-1,0.5-1,0.9
		c0,0.5,0.4,0.8,0.7,1l0.6,0.4c0.5,0.3,1,0.8,1,1.6C133.2,37.2,132.5,37.8,131.5,37.8z"/>
</g>
</svg>
